# xmcd
# 
# Track frame offsets:
#     150
#     14809
#     27045
#     45314
#     68983
#     85368
#     103520
#     127120
#     154851
#     172152
# 
# Disc length: 2524
# 
# Revision: 0
# Processed by: cddbd v1.5.2PL0 Copyright (c) Steve Scherf et al.
# Submitted via: fre:ac v1.0.31
# 
DISCID=8409da0a
DTITLE=Various Artist - Ultimate Music Makeover
DYEAR=0
DGENRE=
TTITLE0=All Star united - Go west young man
TTITLE1=Sarah Kelly - You need a Saviour
TTITLE2=Shaun Groves - Rocketown
TTITLE3=David Crowder'Band - Secret Ambition
TTITLE4=Plumb - Pray for me
TTITLE5=Ryan Smith - The race is on
TTITLE6=Taylor Sorensen - Lamu
TTITLE7=Tree 63 - Missing Person
TTITLE8=Todd Agnew - On teh other side
TTITLE9=Stryper - Friends
EXTD=
EXTT0=
EXTT1=
EXTT2=
EXTT3=
EXTT4=
EXTT5=
EXTT6=
EXTT7=
EXTT8=
EXTT9=
PLAYORDER=
